HIERARCHY
ROOT mixamorig:Hips
{
	OFFSET -0.000008 104.274872 1.554316
	CHANNELS 6 Xposition Yposition Zposition Xrotation Yrotation Zrotation
	JOINT mixamorig:Spine
	{
		OFFSET -0.000005 10.181595 0.131519
		CHANNELS 6 Xposition Yposition Zposition Xrotation Yrotation Zrotation
		JOINT mixamorig:Spine1
		{
			OFFSET -0.000000 9.893959 -1.470707
			CHANNELS 6 Xposition Yposition Zposition Xrotation Yrotation Zrotation
			JOINT mixamorig:Spine2
			{
				OFFSET -0.000000 9.220757 -1.370641
				CHANNELS 6 Xposition Yposition Zposition Xrotation Yrotation Zrotation
				JOINT mixamorig:Neck
				{
					OFFSET 0.000001 16.740417 -2.049036
					CHANNELS 6 Xposition Yposition Zposition Xrotation Yrotation Zrotation
					JOINT mixamorig:Head
					{
						OFFSET 0.000000 9.617874 1.685006
						CHANNELS 6 Xposition Yposition Zposition Xrotation Yrotation Zrotation
						JOINT mixamorig:HeadTop_End
						{
							OFFSET 0.000002 22.037354 7.501101
							CHANNELS 6 Xposition Yposition Zposition Xrotation Yrotation Zrotation
							End Site
							{
								OFFSET 0.000168 2310.654297 -282.823242
							}
						}
					}
				}
				JOINT mixamorig:RightShoulder
				{
					OFFSET -4.569970 11.014908 -2.160885
					CHANNELS 6 Xposition Yposition Zposition Xrotation Yrotation Zrotation
					JOINT mixamorig:RightArm
					{
						OFFSET -10.592851 -0.524811 -2.232101
						CHANNELS 6 Xposition Yposition Zposition Xrotation Yrotation Zrotation
						JOINT mixamorig:RightForeArm
						{
							OFFSET -27.841511 0.000031 -0.000004
							CHANNELS 6 Xposition Yposition Zposition Xrotation Yrotation Zrotation
							JOINT mixamorig:RightHand
							{
								OFFSET -28.328831 -0.000015 0.000015
								CHANNELS 6 Xposition Yposition Zposition Xrotation Yrotation Zrotation
								JOINT mixamorig:RightHandThumb1
								{
									OFFSET -2.464806 -1.573990 2.681852
									CHANNELS 6 Xposition Yposition Zposition Xrotation Yrotation Zrotation
									JOINT mixamorig:RightHandThumb2
									{
										OFFSET -3.215179 -1.872803 1.924282
										CHANNELS 6 Xposition Yposition Zposition Xrotation Yrotation Zrotation
										JOINT mixamorig:RightHandThumb3
										{
											OFFSET -2.654831 -1.527969 1.512609
											CHANNELS 6 Xposition Yposition Zposition Xrotation Yrotation Zrotation
											JOINT mixamorig:RightHandThumb4
											{
												OFFSET -2.018814 -1.152008 1.108052
												CHANNELS 6 Xposition Yposition Zposition Xrotation Yrotation Zrotation
												End Site
												{
													OFFSET -188.809540 -114.533607 132.431396
												}
											}
										}
									}
								}
								JOINT mixamorig:RightHandIndex1
								{
									OFFSET -9.108284 -0.517868 2.259835
									CHANNELS 6 Xposition Yposition Zposition Xrotation Yrotation Zrotation
									JOINT mixamorig:RightHandIndex2
									{
										OFFSET -3.699989 0.000000 0.001215
										CHANNELS 6 Xposition Yposition Zposition Xrotation Yrotation Zrotation
										JOINT mixamorig:RightHandIndex3
										{
											OFFSET -2.850006 0.000031 -0.000522
											CHANNELS 6 Xposition Yposition Zposition Xrotation Yrotation Zrotation
											JOINT mixamorig:RightHandIndex4
											{
												OFFSET -2.772186 -0.000015 -0.000020
												CHANNELS 6 Xposition Yposition Zposition Xrotation Yrotation Zrotation
												End Site
												{
													OFFSET -277.218445 0.000000 -0.050231
												}
											}
										}
									}
								}
								JOINT mixamorig:RightHandMiddle1
								{
									OFFSET -9.532516 -0.000031 -0.000023
									CHANNELS 6 Xposition Yposition Zposition Xrotation Yrotation Zrotation
									JOINT mixamorig:RightHandMiddle2
									{
										OFFSET -3.700005 -0.000015 0.003713
										CHANNELS 6 Xposition Yposition Zposition Xrotation Yrotation Zrotation
										JOINT mixamorig:RightHandMiddle3
										{
											OFFSET -2.949974 0.000015 -0.002054
											CHANNELS 6 Xposition Yposition Zposition Xrotation Yrotation Zrotation
											JOINT mixamorig:RightHandMiddle4
											{
												OFFSET -2.946640 0.000000 -0.000156
												CHANNELS 6 Xposition Yposition Zposition Xrotation Yrotation Zrotation
												End Site
												{
													OFFSET -294.664337 0.000000 -0.113670
												}
											}
										}
									}
								}
								JOINT mixamorig:RightHandRing1
								{
									OFFSET -9.103600 -0.043076 -1.865134
									CHANNELS 6 Xposition Yposition Zposition Xrotation Yrotation Zrotation
									JOINT mixamorig:RightHandRing2
									{
										OFFSET -3.379288 0.000000 -0.001055
										CHANNELS 6 Xposition Yposition Zposition Xrotation Yrotation Zrotation
										JOINT mixamorig:RightHandRing3
										{
											OFFSET -2.889687 -0.000015 0.000379
											CHANNELS 6 Xposition Yposition Zposition Xrotation Yrotation Zrotation
											JOINT mixamorig:RightHandRing4
											{
												OFFSET -2.638809 -0.000015 0.000941
												CHANNELS 6 Xposition Yposition Zposition Xrotation Yrotation Zrotation
												End Site
												{
													OFFSET -263.880371 0.000000 0.516020
												}
											}
										}
									}
								}
								JOINT mixamorig:RightHandPinky1
								{
									OFFSET -8.076683 -0.486710 -3.806280
									CHANNELS 6 Xposition Yposition Zposition Xrotation Yrotation Zrotation
									JOINT mixamorig:RightHandPinky2
									{
										OFFSET -3.600014 -0.000015 -0.003747
										CHANNELS 6 Xposition Yposition Zposition Xrotation Yrotation Zrotation
										JOINT mixamorig:RightHandPinky3
										{
											OFFSET -2.099983 0.000000 -0.005739
											CHANNELS 6 Xposition Yposition Zposition Xrotation Yrotation Zrotation
											JOINT mixamorig:RightHandPinky4
											{
												OFFSET -2.115768 -0.000031 -0.003680
												CHANNELS 6 Xposition Yposition Zposition Xrotation Yrotation Zrotation
												End Site
												{
													OFFSET -211.577087 0.000000 -0.350686
												}
											}
										}
									}
								}
							}
						}
					}
				}
				JOINT mixamorig:LeftShoulder
				{
					OFFSET 4.570447 11.014725 -2.160855
					CHANNELS 6 Xposition Yposition Zposition Xrotation Yrotation Zrotation
					JOINT mixamorig:LeftArm
					{
						OFFSET 10.592371 -0.524597 -2.232119
						CHANNELS 6 Xposition Yposition Zposition Xrotation Yrotation Zrotation
						JOINT mixamorig:LeftForeArm
						{
							OFFSET 27.841532 -0.000031 0.000026
							CHANNELS 6 Xposition Yposition Zposition Xrotation Yrotation Zrotation
							JOINT mixamorig:LeftHand
							{
								OFFSET 28.328846 -0.000061 0.000022
								CHANNELS 6 Xposition Yposition Zposition Xrotation Yrotation Zrotation
								JOINT mixamorig:LeftHandThumb1
								{
									OFFSET 2.466141 -1.576172 2.681732
									CHANNELS 6 Xposition Yposition Zposition Xrotation Yrotation Zrotation
									JOINT mixamorig:LeftHandThumb2
									{
										OFFSET 3.217812 -1.872070 1.916482
										CHANNELS 6 Xposition Yposition Zposition Xrotation Yrotation Zrotation
										JOINT mixamorig:LeftHandThumb3
										{
											OFFSET 2.656029 -1.528778 1.514513
											CHANNELS 6 Xposition Yposition Zposition Xrotation Yrotation Zrotation
											JOINT mixamorig:LeftHandThumb4
											{
												OFFSET 2.020889 -1.154053 1.115139
												CHANNELS 6 Xposition Yposition Zposition Xrotation Yrotation Zrotation
												End Site
												{
													OFFSET 190.885437 -115.081749 130.048782
												}
											}
										}
									}
								}
								JOINT mixamorig:LeftHandIndex1
								{
									OFFSET 9.109314 -0.518021 2.259871
									CHANNELS 6 Xposition Yposition Zposition Xrotation Yrotation Zrotation
									JOINT mixamorig:LeftHandIndex2
									{
										OFFSET 3.699989 0.000000 -0.000322
										CHANNELS 6 Xposition Yposition Zposition Xrotation Yrotation Zrotation
										JOINT mixamorig:LeftHandIndex3
										{
											OFFSET 2.850006 0.000000 0.000352
											CHANNELS 6 Xposition Yposition Zposition Xrotation Yrotation Zrotation
											JOINT mixamorig:LeftHandIndex4
											{
												OFFSET 2.774864 -0.000031 -0.000027
												CHANNELS 6 Xposition Yposition Zposition Xrotation Yrotation Zrotation
												End Site
												{
													OFFSET 277.486267 0.000000 -0.009857
												}
											}
										}
									}
								}
								JOINT mixamorig:LeftHandMiddle1
								{
									OFFSET 9.533394 0.000061 0.000044
									CHANNELS 6 Xposition Yposition Zposition Xrotation Yrotation Zrotation
									JOINT mixamorig:LeftHandMiddle2
									{
										OFFSET 3.699989 -0.000015 -0.000231
										CHANNELS 6 Xposition Yposition Zposition Xrotation Yrotation Zrotation
										JOINT mixamorig:LeftHandMiddle3
										{
											OFFSET 2.949997 -0.000015 -0.000059
											CHANNELS 6 Xposition Yposition Zposition Xrotation Yrotation Zrotation
											JOINT mixamorig:LeftHandMiddle4
											{
												OFFSET 2.952896 0.000031 0.000063
												CHANNELS 6 Xposition Yposition Zposition Xrotation Yrotation Zrotation
												End Site
												{
													OFFSET 295.289337 0.000000 0.022810
												}
											}
										}
									}
								}
								JOINT mixamorig:LeftHandRing1
								{
									OFFSET 9.104523 -0.042999 -1.865074
									CHANNELS 6 Xposition Yposition Zposition Xrotation Yrotation Zrotation
									JOINT mixamorig:LeftHandRing2
									{
										OFFSET 3.150009 -0.000031 0.000043
										CHANNELS 6 Xposition Yposition Zposition Xrotation Yrotation Zrotation
										JOINT mixamorig:LeftHandRing3
										{
											OFFSET 2.949982 -0.000015 0.000040
											CHANNELS 6 Xposition Yposition Zposition Xrotation Yrotation Zrotation
											JOINT mixamorig:LeftHandRing4
											{
												OFFSET 2.644348 0.000000 0.000057
												CHANNELS 6 Xposition Yposition Zposition Xrotation Yrotation Zrotation
												End Site
												{
													OFFSET 264.434631 0.000000 0.012105
												}
											}
										}
									}
								}
								JOINT mixamorig:LeftHandPinky1
								{
									OFFSET 8.077789 -0.486847 -3.806259
									CHANNELS 6 Xposition Yposition Zposition Xrotation Yrotation Zrotation
									JOINT mixamorig:LeftHandPinky2
									{
										OFFSET 3.599953 0.000031 0.014727
										CHANNELS 6 Xposition Yposition Zposition Xrotation Yrotation Zrotation
										JOINT mixamorig:LeftHandPinky3
										{
											OFFSET 2.100021 0.000015 0.007705
											CHANNELS 6 Xposition Yposition Zposition Xrotation Yrotation Zrotation
											JOINT mixamorig:LeftHandPinky4
											{
												OFFSET 2.125504 0.000031 0.007517
												CHANNELS 6 Xposition Yposition Zposition Xrotation Yrotation Zrotation
												End Site
												{
													OFFSET 212.550781 0.000000 0.625752
												}
											}
										}
									}
								}
							}
						}
					}
				}
			}
		}
	}
	JOINT mixamorig:RightUpLeg
	{
		OFFSET -8.207787 -6.751648 -1.599560
		CHANNELS 6 Xposition Yposition Zposition Xrotation Yrotation Zrotation
		JOINT mixamorig:RightLeg
		{
			OFFSET -0.000002 -44.370117 0.345942
			CHANNELS 6 Xposition Yposition Zposition Xrotation Yrotation Zrotation
			JOINT mixamorig:RightFoot
			{
				OFFSET 0.000003 -44.423679 -3.043532
				CHANNELS 6 Xposition Yposition Zposition Xrotation Yrotation Zrotation
				JOINT mixamorig:RightToeBase
				{
					OFFSET -0.000002 -8.728671 10.710558
					CHANNELS 6 Xposition Yposition Zposition Xrotation Yrotation Zrotation
					JOINT mixamorig:RightToe_End
					{
						OFFSET -0.000001 -0.000679 9.278119
						CHANNELS 6 Xposition Yposition Zposition Xrotation Yrotation Zrotation
						End Site
						{
							OFFSET 0.000000 -0.067690 927.812134
						}
					}
				}
			}
		}
	}
	JOINT mixamorig:LeftUpLeg
	{
		OFFSET 8.207793 -6.751686 -1.599556
		CHANNELS 6 Xposition Yposition Zposition Xrotation Yrotation Zrotation
		JOINT mixamorig:LeftLeg
		{
			OFFSET -0.000004 -44.370014 0.346954
			CHANNELS 6 Xposition Yposition Zposition Xrotation Yrotation Zrotation
			JOINT mixamorig:LeftFoot
			{
				OFFSET -0.000001 -44.423672 -3.044401
				CHANNELS 6 Xposition Yposition Zposition Xrotation Yrotation Zrotation
				JOINT mixamorig:LeftToeBase
				{
					OFFSET -0.000002 -8.728669 10.710558
					CHANNELS 6 Xposition Yposition Zposition Xrotation Yrotation Zrotation
					JOINT mixamorig:LeftToe_End
					{
						OFFSET -0.000003 -0.000679 9.278133
						CHANNELS 6 Xposition Yposition Zposition Xrotation Yrotation Zrotation
						End Site
						{
							OFFSET 0.000000 -0.068021 927.813477
						}
					}
				}
			}
		}
	}
}
MOTION
Frames: 3
Frame Time: 0.033333
0.000006 104.270477 1.554256 0.000010 0.000003 -0.000113 -0.000005 10.181587 0.131522 0.000001 -0.000003 0.000084 -0.000000 9.893967 -1.470711 0.000001 0.000000 -0.000000 -0.000000 9.220802 -1.370642 0.000000 -0.000000 -0.000000 0.000001 16.740433 -2.049030 0.000000 -0.000000 -0.000000 0.000000 9.617859 1.685014 0.000000 0.000000 0.000000 0.000002 22.037384 7.501101 0.000000 -0.000000 0.000000 -4.569968 11.014880 -2.160881 0.000008 0.000001 -0.000038 -10.592774 -0.524855 -2.231748 81.675873 65.337672 -57.992944 -27.841476 0.000009 0.000588 45.351643 107.950990 -59.759360 -28.328829 0.000022 0.000034 -0.000322 -0.000045 0.000007 -2.464677 -1.574196 2.681999 119.503435 -155.553665 161.631017 -3.215008 -1.873032 1.924457 103.203346 -148.394452 151.834368 -2.654695 -1.528281 1.512867 272.592139 -27.849285 -33.390445 -2.018811 -1.151981 1.108070 -0.000004 -0.000004 -0.000001 -9.108331 -0.517946 2.260324 251.842353 16.228019 22.301073 -3.700035 -0.000091 0.001658 78.181446 162.199152 -158.192796 -2.850059 -0.000104 -0.000100 -95.739028 14.540762 16.055698 -2.772161 0.000001 -0.000028 -0.000000 0.000001 -0.000001 -9.532544 -0.000152 0.000459 255.075272 16.071160 20.921288 -3.700047 -0.000121 0.004190 -100.851001 17.633576 21.195829 -2.950028 -0.000153 -0.001636 -96.717029 11.431256 12.840069 -2.946633 0.000001 -0.000145 0.000001 0.000001 0.000000 -9.103635 -0.043165 -1.864679 78.735655 167.258560 -164.533930 -3.379306 -0.000165 -0.000623 -100.656607 7.570388 9.137238 -2.889733 -0.000149 0.000812 -97.123972 3.383977 3.876358 -2.638803 -0.000031 0.000938 0.000001 -0.000000 0.000001 -8.076689 -0.486855 -3.805904 266.357898 8.451616 -351.104399 -3.599986 -0.000224 -0.003347 -97.751810 -1.233078 -1.779831 -2.099976 -0.000194 -0.005339 -101.062600 -2.684421 -3.515732 -2.115777 -0.000056 -0.003688 0.000000 0.000000 -0.000003 4.570446 11.014691 -2.160851 -0.000018 0.000010 -0.000021 10.592525 -0.524529 -2.232401 69.838172 -63.914663 47.066557 27.841755 -0.000058 -0.000100 40.633301 -107.963250 53.975047 28.328833 -0.000013 0.000033 0.000022 -0.000089 -0.000000 2.466144 -1.576151 2.681869 92.748669 129.885377 -141.469719 3.217829 -1.872004 1.916531 289.851044 36.011520 25.450914 2.656049 -1.528776 1.514609 290.585918 28.160592 24.141054 2.020888 -1.154065 1.115150 0.000000 0.000001 -0.000003 9.109269 -0.517800 2.260117 77.492328 -168.690086 165.941030 3.699945 0.000181 -0.000073 79.170683 -164.497497 161.291693 2.849955 0.000217 0.000591 78.744343 -167.307451 164.564023 2.774877 -0.000046 -0.000026 -0.000003 -0.000002 0.000001 9.533366 0.000262 0.000293 257.243065 -9.279440 -11.593527 3.699954 0.000186 0.000038 257.758799 -13.340204 -16.502908 2.949970 0.000195 0.000172 -100.290680 -9.708745 -11.620546 2.952874 -0.000045 0.000066 -0.000002 0.000001 -0.000000 9.104512 -0.042799 -1.864827 259.007767 -7.805118 -9.461828 3.149979 0.000253 0.000297 -101.255075 -6.928612 -8.439938 2.949963 0.000183 0.000277 -98.984263 -4.873422 -5.704747 2.644320 0.000015 0.000064 0.000001 -0.000000 -0.000001 8.077757 -0.486644 -3.806013 258.972087 -6.053701 -7.847431 3.599946 0.000222 0.014987 262.118236 -1.623307 -2.332056 2.099999 0.000193 0.007938 -95.461927 -1.201222 -1.756032 2.125497 0.000001 0.007484 0.000004 0.000001 -0.000000 -8.207786 -6.751667 -1.599560 -0.077001 -0.000003 0.000080 -0.000002 -44.370110 0.345938 0.153719 -0.000000 -0.000000 0.000000 -44.423679 -3.043532 -0.076700 0.000000 -0.000002 -0.000006 -8.728667 10.710559 -0.000009 -0.000000 -0.000000 -0.000001 -0.000679 9.278123 0.000000 -0.000000 -0.000000 8.207792 -6.751710 -1.599556 -0.074518 -0.000003 0.000081 -0.000002 -44.370014 0.346960 0.148822 0.000002 0.000000 -0.000001 -44.423664 -3.044403 -0.074314 0.000000 -0.000002 -0.000004 -8.728671 10.710558 0.000007 -0.000000 -0.000000 0.000000 -0.000680 9.278137 -0.000000 0.000000 -0.000001 
0.000006 104.270477 1.554256 0.000010 0.000003 -0.000113 -0.000005 10.181587 0.131522 0.000001 -0.000003 0.000084 -0.000000 9.893967 -1.470711 0.000001 0.000000 -0.000000 -0.000000 9.220802 -1.370642 0.000000 -0.000000 -0.000000 0.000001 16.740433 -2.049030 0.000000 -0.000000 -0.000000 0.000000 9.617859 1.685014 0.000000 0.000000 0.000000 0.000002 22.037384 7.501101 0.000000 -0.000000 0.000000 -4.569968 11.014880 -2.160881 0.000008 0.000001 -0.000038 -10.592776 -0.524852 -2.231747 81.689069 64.926562 -57.620780 -27.841480 0.000007 0.000584 45.328079 108.003234 -59.778198 -28.328829 0.000006 0.000034 -0.000318 -0.000044 0.000007 -2.464673 -1.574187 2.682011 119.232768 -154.217707 161.390239 -3.214991 -1.873027 1.924483 103.223474 -149.499768 152.101346 -2.654714 -1.528289 1.512842 274.097978 -25.464596 -31.832144 -2.018826 -1.151996 1.108065 -0.000001 -0.000001 0.000002 -9.108327 -0.517959 2.260299 252.887754 17.370675 23.407516 -3.700041 -0.000084 0.001653 79.646071 161.695358 -158.142621 -2.850064 -0.000108 -0.000108 -95.135328 14.900100 16.280654 -2.772165 -0.000015 -0.000030 -0.000002 -0.000003 0.000001 -9.532553 -0.000153 0.000447 256.483821 17.228061 21.854326 -3.700056 -0.000109 0.004152 -99.188615 18.581024 21.698287 -2.950029 -0.000151 -0.001656 -95.111976 12.342362 13.480638 -2.946632 -0.000000 -0.000155 -0.000000 0.000003 -0.000000 -9.103642 -0.043180 -1.864697 80.224506 166.253047 -163.744674 -3.379303 -0.000160 -0.000616 -99.057332 9.242047 10.837755 -2.889741 -0.000140 0.000747 -94.946815 4.980756 5.470325 -2.638802 -0.000000 0.000953 -0.000001 -0.000000 0.000000 -8.076691 -0.486848 -3.805918 268.866189 10.166603 -349.731367 -3.600002 -0.000230 -0.003355 -95.554422 0.974317 0.733431 -2.099978 -0.000222 -0.005349 -99.059989 -0.730067 -1.094850 -2.115776 -0.000056 -0.003660 0.000000 0.000000 -0.000003 4.570446 11.014691 -2.160851 -0.000018 0.000010 -0.000021 10.592525 -0.524528 -2.232401 70.188697 -63.460326 46.968626 27.841753 -0.000043 -0.000108 40.886619 -108.045383 54.359604 28.328835 -0.000013 0.000045 0.000021 -0.000088 -0.000001 2.466147 -1.576152 2.681890 98.253166 135.842245 -146.758635 3.217840 -1.871993 1.916528 289.009510 35.364496 25.796702 2.656042 -1.528775 1.514602 287.269779 29.957626 26.178737 2.020884 -1.154073 1.115142 0.000000 0.000004 0.000002 9.109264 -0.517788 2.260134 76.848733 -167.237291 163.959811 3.699925 0.000185 -0.000074 78.446703 -163.135803 159.402245 2.849956 0.000232 0.000606 77.697384 -166.576662 163.375721 2.774895 -0.000048 -0.000023 -0.000000 0.000001 -0.000000 9.533366 0.000265 0.000291 256.456391 -10.801428 -13.680428 3.699955 0.000209 0.000006 256.745390 -14.075366 -17.721348 2.949984 0.000217 0.000208 -101.524786 -9.844556 -12.042141 2.952873 -0.000015 0.000062 0.000000 -0.000002 0.000000 9.104493 -0.042801 -1.864821 257.492449 -9.408557 -11.711520 3.149981 0.000239 0.000308 -102.188168 -6.233807 -7.721609 2.949975 0.000215 0.000264 -99.955393 -3.615012 -4.305839 2.644324 0.000015 0.000059 0.000001 0.000002 0.000000 8.077757 -0.486635 -3.805991 258.623993 -7.365953 -9.480725 3.599948 0.000229 0.014962 262.082172 -1.603619 -2.311097 2.099991 0.000206 0.007959 -96.396236 -0.726919 -1.258419 2.125503 -0.000015 0.007507 -0.000000 0.000001 0.000000 -8.207786 -6.751667 -1.599560 -0.077001 -0.000003 0.000080 -0.000002 -44.370110 0.345938 0.153719 -0.000000 -0.000000 0.000000 -44.423679 -3.043532 -0.076700 0.000000 -0.000002 -0.000006 -8.728667 10.710559 -0.000009 -0.000000 -0.000000 -0.000001 -0.000679 9.278123 0.000000 -0.000000 -0.000000 8.207792 -6.751710 -1.599556 -0.074518 -0.000003 0.000081 -0.000002 -44.370014 0.346960 0.148822 0.000002 0.000000 -0.000001 -44.423664 -3.044403 -0.074314 0.000000 -0.000002 -0.000004 -8.728671 10.710558 0.000007 -0.000000 -0.000000 0.000000 -0.000680 9.278137 -0.000000 0.000000 -0.000001 
0.000006 104.270477 1.554256 0.000010 0.000003 -0.000113 -0.000005 10.181587 0.131522 0.000001 -0.000003 0.000084 -0.000000 9.893967 -1.470711 0.000001 0.000000 -0.000000 -0.000000 9.220802 -1.370642 0.000000 -0.000000 -0.000000 0.000001 16.740433 -2.049030 0.000000 -0.000000 -0.000000 0.000000 9.617859 1.685014 0.000000 0.000000 0.000000 0.000002 22.037384 7.501101 0.000000 -0.000000 0.000000 -4.569968 11.014880 -2.160881 0.000008 0.000001 -0.000038 -10.592778 -0.524851 -2.231746 81.636122 64.646231 -57.314419 -27.841486 -0.000010 0.000594 45.334018 108.092723 -59.866792 -28.328835 0.000022 0.000012 -0.000317 -0.000044 0.000006 -2.464669 -1.574186 2.682024 117.925183 -153.695376 160.735538 -3.215009 -1.873064 1.924434 103.384270 -149.076938 152.087795 -2.654707 -1.528264 1.512851 274.659201 -26.177492 -31.771007 -2.018838 -1.152003 1.108075 -0.000005 -0.000002 0.000004 -9.108320 -0.517963 2.260313 251.804623 17.091739 23.485855 -3.700044 -0.000098 0.001647 78.925746 161.522240 -157.660177 -2.850060 -0.000104 -0.000094 -95.081841 15.007307 16.382379 -2.772173 -0.000013 -0.000031 -0.000000 0.000002 0.000001 -9.532543 -0.000139 0.000438 254.545414 17.171509 22.538501 -3.700056 -0.000092 0.004182 -100.073575 18.697966 22.170919 -2.950029 -0.000150 -0.001646 -95.830382 12.313488 13.618018 -2.946621 -0.000014 -0.000146 0.000001 -0.000000 -0.000001 -9.103649 -0.043162 -1.864690 78.392219 166.232475 -163.189325 -3.379304 -0.000162 -0.000625 -99.824711 9.052787 10.760804 -2.889725 -0.000143 0.000787 -95.675159 4.693720 5.223896 -2.638803 -0.000015 0.000931 -0.000001 0.000000 0.000000 -8.076708 -0.486844 -3.805906 266.903302 9.879304 -349.678938 -3.599988 -0.000231 -0.003348 -96.482187 0.755853 0.499407 -2.099979 -0.000202 -0.005357 -99.328770 -0.967137 -1.380224 -2.115770 -0.000056 -0.003686 0.000001 0.000000 -0.000003 4.570446 11.014691 -2.160851 -0.000018 0.000010 -0.000021 10.592527 -0.524520 -2.232403 70.369738 -62.920693 46.667978 27.841755 -0.000093 -0.000098 40.971419 -107.849684 54.297685 28.328831 -0.000013 0.000019 0.000022 -0.000089 0.000000 2.466146 -1.576175 2.681855 108.433945 135.037963 -152.948399 3.217806 -1.871999 1.916546 291.049988 37.617427 25.062916 2.656048 -1.528782 1.514606 287.458593 32.655896 26.651531 2.020884 -1.154083 1.115147 0.000002 0.000003 -0.000001 9.109270 -0.517788 2.260108 74.758654 -169.462143 166.244660 3.699942 0.000185 -0.000070 78.373081 -164.895861 161.513306 2.849970 0.000229 0.000588 78.030130 -167.733054 164.890821 2.774883 -0.000030 -0.000026 0.000001 0.000000 -0.000002 9.533373 0.000254 0.000273 255.408476 -8.872315 -11.454644 3.699964 0.000192 0.000019 256.775443 -12.908129 -16.250528 2.949968 0.000224 0.000200 -101.811005 -9.175043 -11.282209 2.952868 -0.000046 0.000060 0.000000 0.000001 -0.000001 9.104508 -0.042805 -1.864827 257.075179 -7.118557 -8.932340 3.149982 0.000251 0.000285 -102.348267 -6.038590 -7.501454 2.949961 0.000199 0.000273 -100.516144 -4.170182 -5.016181 2.644325 0.000017 0.000051 0.000002 -0.000002 0.000000 8.077775 -0.486655 -3.806025 257.799808 -4.775229 -6.444373 3.599957 0.000225 0.014971 262.436714 -0.677499 -1.247553 2.100007 0.000183 0.007942 -95.658917 -0.725710 -1.240946 2.125510 -0.000030 0.007515 0.000001 -0.000000 0.000000 -8.207786 -6.751667 -1.599560 -0.077001 -0.000003 0.000080 -0.000002 -44.370110 0.345938 0.153719 -0.000000 -0.000000 0.000000 -44.423679 -3.043532 -0.076700 0.000000 -0.000002 -0.000006 -8.728667 10.710559 -0.000009 -0.000000 -0.000000 -0.000001 -0.000679 9.278123 0.000000 -0.000000 -0.000000 8.207792 -6.751710 -1.599556 -0.074518 -0.000003 0.000081 -0.000002 -44.370014 0.346960 0.148822 0.000002 0.000000 -0.000001 -44.423664 -3.044403 -0.074314 0.000000 -0.000002 -0.000004 -8.728671 10.710558 0.000007 -0.000000 -0.000000 0.000000 -0.000680 9.278137 -0.000000 0.000000 -0.000001 
